<svg xmlns="http://www.w3.org/2000/svg" x="0px" y="0px" width="100%" height="100%" viewBox="0,0,256,256">
<defs><linearGradient x1="5.079" y1="5.193" x2="18.754" y2="18.868" gradientUnits="userSpaceOnUse" id="color-1_E3uRweAj3KEQ_gr1"><stop offset="0" stop-color="#000000" stop-opacity="0.6"></stop><stop offset="1" stop-color="#b9e7ff" stop-opacity="0.30196"></stop></linearGradient><linearGradient x1="5.079" y1="5.193" x2="18.754" y2="18.868" gradientUnits="userSpaceOnUse" id="color-2_E3uRweAj3KEQ_gr2"><stop offset="0" stop-color="#000000" stop-opacity="0.6"></stop><stop offset="0.493" stop-color="#000000" stop-opacity="0"></stop><stop offset="0.997" stop-color="#b9e7ff" stop-opacity="0.30196"></stop></linearGradient><linearGradient x1="3" y1="8.5" x2="21" y2="8.5" gradientUnits="userSpaceOnUse" id="color-3_E3uRweAj3KEQ_gr3"><stop offset="0" stop-color="#ababab" stop-opacity="0.70196"></stop><stop offset="0.519" stop-color="#ffffff" stop-opacity="0.45"></stop><stop offset="1" stop-color="#ffffff" stop-opacity="0.55"></stop></linearGradient></defs><g fill="none" fill-rule="nonzero" stroke="none" stroke-width="1" stroke-linecap="butt" stroke-linejoin="miter" stroke-miterlimit="10" stroke-dasharray="" stroke-dashoffset="0" font-family="none" font-weight="none" font-size="none" text-anchor="none" style="mix-blend-mode: normal"><g transform="scale(10.66667,10.66667)"><path d="M21,14v-3c0,-7 -6,-7 -6,-7c0,-1.105 -0.895,-2 -2,-2h-1c-4.971,0 -9,4.029 -9,9v3c0,0.383 0.222,0.704 0.538,0.872c-0.323,0.274 -0.538,0.671 -0.538,1.128c0,0.828 0.672,1.5 1.5,1.5c0.103,0 0.203,-0.01 0.3,-0.03c1.293,2.678 4.027,4.53 7.2,4.53c3.173,0 5.907,-1.852 7.2,-4.53c0.097,0.02 0.197,0.03 0.3,0.03c0.828,0 1.5,-0.672 1.5,-1.5c0,-0.457 -0.215,-0.854 -0.538,-1.128c0.316,-0.168 0.538,-0.489 0.538,-0.872z" fill="url(#color-1_E3uRweAj3KEQ_gr1)"></path><path d="M13,2.5c0.827,0 1.5,0.673 1.5,1.5l0.001,0.498l0.498,0.002c0.224,0.001 5.501,0.1 5.501,6.5v3c0,0.179 -0.102,0.34 -0.273,0.431l-0.652,0.347l0.564,0.476c0.233,0.197 0.361,0.462 0.361,0.746c0,0.551 -0.449,1 -1,1c-0.069,0 -0.136,-0.007 -0.201,-0.02l-0.381,-0.077l-0.169,0.35c-1.265,2.619 -3.851,4.247 -6.749,4.247c-2.898,0 -5.484,-1.628 -6.75,-4.248l-0.169,-0.35l-0.38,0.078c-0.065,0.013 -0.132,0.02 -0.201,0.02c-0.551,0 -1,-0.449 -1,-1c0,-0.284 0.128,-0.549 0.361,-0.746l0.564,-0.476l-0.652,-0.347c-0.171,-0.091 -0.273,-0.252 -0.273,-0.431v-3c0,-4.687 3.813,-8.5 8.5,-8.5h1M13,2h-1c-4.971,0 -9,4.029 -9,9v3c0,0.383 0.222,0.704 0.538,0.872c-0.323,0.274 -0.538,0.671 -0.538,1.128c0,0.828 0.672,1.5 1.5,1.5c0.103,0 0.203,-0.01 0.3,-0.03c1.293,2.678 4.027,4.53 7.2,4.53c3.173,0 5.907,-1.852 7.2,-4.53c0.097,0.02 0.197,0.03 0.3,0.03c0.828,0 1.5,-0.672 1.5,-1.5c0,-0.457 -0.215,-0.854 -0.538,-1.128c0.316,-0.168 0.538,-0.489 0.538,-0.872v-3c0,-7 -6,-7 -6,-7c0,-1.105 -0.895,-2 -2,-2z" fill="url(#color-2_E3uRweAj3KEQ_gr2)"></path><path d="M15,4c0,-1.105 -0.895,-2 -2,-2h-1c-4.971,0 -9,4.029 -9,9v3c0,0.552 0.448,1 1,1c0.552,0 1,-0.293 1,-1c0,-1.64 1.343,-3 3,-3h8c1.657,0 3,1.343 3,3c0,0.584 0.448,1 1,1c0.552,0 1,-0.448 1,-1v-3c0,-7 -6,-7 -6,-7z" fill="url(#color-3_E3uRweAj3KEQ_gr3)"></path></g></g>
</svg>
